<svg width="317" height="149" viewBox="0 0 317 149" fill="none" xmlns="http://www.w3.org/2000/svg">
<path d="M60.1986 6C58.5186 6 57.1986 4.68 57.1986 3C57.1986 1.32 58.5186 0 60.1986 0C61.8786 0 63.1986 1.32 63.1986 3C63.1986 4.68 61.8786 6 60.1986 6ZM78.1986 6C76.5186 6 75.1986 4.68 75.1986 3C75.1986 1.32 76.5186 0 78.1986 0C79.8786 0 81.1986 1.32 81.1986 3C81.1986 4.68 79.8786 6 78.1986 6ZM72.1986 6C70.5186 6 69.1986 4.68 69.1986 3C69.1986 1.32 70.5186 0 72.1986 0C73.8786 0 75.1986 1.32 75.1986 3C75.1986 4.68 73.8786 6 72.1986 6ZM66.1986 6C64.5186 6 63.1986 4.68 63.1986 3C63.1986 1.32 64.5186 0 66.1986 0C67.8786 0 69.1986 1.32 69.1986 3C69.1986 4.68 67.8786 6 66.1986 6ZM54.1986 6C52.5186 6 51.1986 4.68 51.1986 3C51.1986 1.32 52.5186 0 54.1986 0C55.8786 0 57.1986 1.32 57.1986 3C57.1986 4.68 55.8786 6 54.1986 6ZM48.1986 6C46.5186 6 45.1986 4.68 45.1986 3C45.1986 1.32 46.5186 0 48.1986 0C49.8786 0 51.1986 1.32 51.1986 3C51.1986 4.68 49.8786 6 48.1986 6ZM42.1986 6C40.5186 6 39.1986 4.68 39.1986 3C39.1986 1.32 40.5186 0 42.1986 0C43.8786 0 45.1986 1.32 45.1986 3C45.1986 4.68 43.8786 6 42.1986 6ZM78.1986 12C76.5186 12 75.1986 10.68 75.1986 9C75.1986 7.32 76.5186 6 78.1986 6C79.8786 6 81.1986 7.32 81.1986 9C81.1986 10.68 79.8786 12 78.1986 12ZM66.1986 12C64.5186 12 63.1986 10.68 63.1986 9C63.1986 7.32 64.5186 6 66.1986 6C67.8786 6 69.1986 7.32 69.1986 9C69.1986 10.68 67.8786 12 66.1986 12ZM54.1986 12C52.5186 12 51.1986 10.68 51.1986 9C51.1986 7.32 52.5186 6 54.1986 6C55.8786 6 57.1986 7.32 57.1986 9C57.1986 10.68 55.8786 12 54.1986 12ZM48.1986 12C46.5186 12 45.1986 10.68 45.1986 9C45.1986 7.32 46.5186 6 48.1986 6C49.8786 6 51.1986 7.32 51.1986 9C51.1986 10.68 49.8786 12 48.1986 12ZM72.1986 12C70.5186 12 69.1986 10.68 69.1986 9C69.1986 7.32 70.5186 6 72.1986 6C73.8786 6 75.1986 7.32 75.1986 9C75.1986 10.68 73.8786 12 72.1986 12ZM84.1986 12C82.5186 12 81.1986 10.68 81.1986 9C81.1986 7.32 82.5186 6 84.1986 6C85.8786 6 87.1986 7.32 87.1986 9C87.1986 10.68 85.8786 12 84.1986 12ZM42.1986 12C40.5186 12 39.1986 10.68 39.1986 9C39.1986 7.32 40.5186 6 42.1986 6C43.8786 6 45.1986 7.32 45.1986 9C45.1986 10.68 43.8786 12 42.1986 12ZM60.1986 12C58.5186 12 57.1986 10.68 57.1986 9C57.1986 7.32 58.5186 6 60.1986 6C61.8786 6 63.1986 7.32 63.1986 9C63.1986 10.68 61.8786 12 60.1986 12ZM36.1986 12C34.5186 12 33.1986 10.68 33.1986 9C33.1986 7.32 34.5186 6 36.1986 6C37.8786 6 39.1986 7.32 39.1986 9C39.1986 10.68 37.8786 12 36.1986 12ZM72.1986 18C70.5186 18 69.1986 16.68 69.1986 15C69.1986 13.32 70.5186 12 72.1986 12C73.8786 12 75.1986 13.32 75.1986 15C75.1986 16.68 73.8786 18 72.1986 18ZM78.1986 18C76.5186 18 75.1986 16.68 75.1986 15C75.1986 13.32 76.5186 12 78.1986 12C79.8786 12 81.1986 13.32 81.1986 15C81.1986 16.68 79.8786 18 78.1986 18ZM84.1986 18C82.5186 18 81.1986 16.68 81.1986 15C81.1986 13.32 82.5186 12 84.1986 12C85.8786 12 87.1986 13.32 87.1986 15C87.1986 16.68 85.8786 18 84.1986 18ZM66.1986 18C64.5186 18 63.1986 16.68 63.1986 15C63.1986 13.32 64.5186 12 66.1986 12C67.8786 12 69.1986 13.32 69.1986 15C69.1986 16.68 67.8786 18 66.1986 18ZM36.1986 18C34.5186 18 33.1986 16.68 33.1986 15C33.1986 13.32 34.5186 12 36.1986 12C37.8786 12 39.1986 13.32 39.1986 15C39.1986 16.68 37.8786 18 36.1986 18ZM72.1986 24C70.5186 24 69.1986 22.68 69.1986 21C69.1986 19.32 70.5186 18 72.1986 18C73.8786 18 75.1986 19.32 75.1986 21C75.1986 22.68 73.8786 24 72.1986 24ZM66.1986 24C64.5186 24 63.1986 22.68 63.1986 21C63.1986 19.32 64.5186 18 66.1986 18C67.8786 18 69.1986 19.32 69.1986 21C69.1986 22.68 67.8786 24 66.1986 24ZM78.1986 24C76.5186 24 75.1986 22.68 75.1986 21C75.1986 19.32 76.5186 18 78.1986 18C79.8786 18 81.1986 19.32 81.1986 21C81.1986 22.68 79.8786 24 78.1986 24ZM84.1986 24C82.5186 24 81.1986 22.68 81.1986 21C81.1986 19.32 82.5186 18 84.1986 18C85.8786 18 87.1986 19.32 87.1986 21C87.1986 22.68 85.8786 24 84.1986 24ZM60.1986 30C58.5186 30 57.1986 28.68 57.1986 27C57.1986 25.32 58.5186 24 60.1986 24C61.8786 24 63.1986 25.32 63.1986 27C63.1986 28.68 61.8786 30 60.1986 30ZM54.1986 30C52.5186 30 51.1986 28.68 51.1986 27C51.1986 25.32 52.5186 24 54.1986 24C55.8786 24 57.1986 25.32 57.1986 27C57.1986 28.68 55.8786 30 54.1986 30ZM66.1986 30C64.5186 30 63.1986 28.68 63.1986 27C63.1986 25.32 64.5186 24 66.1986 24C67.8786 24 69.1986 25.32 69.1986 27C69.1986 28.68 67.8786 30 66.1986 30ZM72.1986 30C70.5186 30 69.1986 28.68 69.1986 27C69.1986 25.32 70.5186 24 72.1986 24C73.8786 24 75.1986 25.32 75.1986 27C75.1986 28.68 73.8786 30 72.1986 30ZM78.1986 30C76.5186 30 75.1986 28.68 75.1986 27C75.1986 25.32 76.5186 24 78.1986 24C79.8786 24 81.1986 25.32 81.1986 27C81.1986 28.68 79.8786 30 78.1986 30ZM48.1986 30C46.5186 30 45.1986 28.68 45.1986 27C45.1986 25.32 46.5186 24 48.1986 24C49.8786 24 51.1986 25.32 51.1986 27C51.1986 28.68 49.8786 30 48.1986 30ZM60.1986 36C58.5186 36 57.1986 34.68 57.1986 33C57.1986 31.32 58.5186 30 60.1986 30C61.8786 30 63.1986 31.32 63.1986 33C63.1986 34.68 61.8786 36 60.1986 36ZM48.1986 36C46.5186 36 45.1986 34.68 45.1986 33C45.1986 31.32 46.5186 30 48.1986 30C49.8786 30 51.1986 31.32 51.1986 33C51.1986 34.68 49.8786 36 48.1986 36ZM54.1986 36C52.5186 36 51.1986 34.68 51.1986 33C51.1986 31.32 52.5186 30 54.1986 30C55.8786 30 57.1986 31.32 57.1986 33C57.1986 34.68 55.8786 36 54.1986 36ZM66.1986 36C64.5186 36 63.1986 34.68 63.1986 33C63.1986 31.32 64.5186 30 66.1986 30C67.8786 30 69.1986 31.32 69.1986 33C69.1986 34.68 67.8786 36 66.1986 36ZM72.1986 36C70.5186 36 69.1986 34.68 69.1986 33C69.1986 31.32 70.5186 30 72.1986 30C73.8786 30 75.1986 31.32 75.1986 33C75.1986 34.68 73.8786 36 72.1986 36ZM78.1986 36C76.5186 36 75.1986 34.68 75.1986 33C75.1986 31.32 76.5186 30 78.1986 30C79.8786 30 81.1986 31.32 81.1986 33C81.1986 34.68 79.8786 36 78.1986 36ZM66.1986 42C64.5186 42 63.1986 40.68 63.1986 39C63.1986 37.32 64.5186 36 66.1986 36C67.8786 36 69.1986 37.32 69.1986 39C69.1986 40.68 67.8786 42 66.1986 42ZM72.1986 42C70.5186 42 69.1986 40.68 69.1986 39C69.1986 37.32 70.5186 36 72.1986 36C73.8786 36 75.1986 37.32 75.1986 39C75.1986 40.68 73.8786 42 72.1986 42ZM84.1986 42C82.5186 42 81.1986 40.68 81.1986 39C81.1986 37.32 82.5186 36 84.1986 36C85.8786 36 87.1986 37.32 87.1986 39C87.1986 40.68 85.8786 42 84.1986 42ZM78.1986 42C76.5186 42 75.1986 40.68 75.1986 39C75.1986 37.32 76.5186 36 78.1986 36C79.8786 36 81.1986 37.32 81.1986 39C81.1986 40.68 79.8786 42 78.1986 42ZM72.1986 48C70.5186 48 69.1986 46.68 69.1986 45C69.1986 43.32 70.5186 42 72.1986 42C73.8786 42 75.1986 43.32 75.1986 45C75.1986 46.68 73.8786 48 72.1986 48ZM78.1986 48C76.5186 48 75.1986 46.68 75.1986 45C75.1986 43.32 76.5186 42 78.1986 42C79.8786 42 81.1986 43.32 81.1986 45C81.1986 46.68 79.8786 48 78.1986 48ZM84.1986 48C82.5186 48 81.1986 46.68 81.1986 45C81.1986 43.32 82.5186 42 84.1986 42C85.8786 42 87.1986 43.32 87.1986 45C87.1986 46.68 85.8786 48 84.1986 48ZM66.1986 48C64.5186 48 63.1986 46.68 63.1986 45C63.1986 43.32 64.5186 42 66.1986 42C67.8786 42 69.1986 43.32 69.1986 45C69.1986 46.68 67.8786 48 66.1986 48ZM36.1986 48C34.5186 48 33.1986 46.68 33.1986 45C33.1986 43.32 34.5186 42 36.1986 42C37.8786 42 39.1986 43.32 39.1986 45C39.1986 46.68 37.8786 48 36.1986 48ZM78.1986 54C76.5186 54 75.1986 52.68 75.1986 51C75.1986 49.32 76.5186 48 78.1986 48C79.8786 48 81.1986 49.32 81.1986 51C81.1986 52.68 79.8786 54 78.1986 54ZM84.1986 54C82.5186 54 81.1986 52.68 81.1986 51C81.1986 49.32 82.5186 48 84.1986 48C85.8786 48 87.1986 49.32 87.1986 51C87.1986 52.68 85.8786 54 84.1986 54ZM66.1986 54C64.5186 54 63.1986 52.68 63.1986 51C63.1986 49.32 64.5186 48 66.1986 48C67.8786 48 69.1986 49.32 69.1986 51C69.1986 52.68 67.8786 54 66.1986 54ZM54.1986 54C52.5186 54 51.1986 52.68 51.1986 51C51.1986 49.32 52.5186 48 54.1986 48C55.8786 48 57.1986 49.32 57.1986 51C57.1986 52.68 55.8786 54 54.1986 54ZM48.1986 54C46.5186 54 45.1986 52.68 45.1986 51C45.1986 49.32 46.5186 48 48.1986 48C49.8786 48 51.1986 49.32 51.1986 51C51.1986 52.68 49.8786 54 48.1986 54ZM42.1986 54C40.5186 54 39.1986 52.68 39.1986 51C39.1986 49.32 40.5186 48 42.1986 48C43.8786 48 45.1986 49.32 45.1986 51C45.1986 52.68 43.8786 54 42.1986 54ZM36.1986 54C34.5186 54 33.1986 52.68 33.1986 51C33.1986 49.32 34.5186 48 36.1986 48C37.8786 48 39.1986 49.32 39.1986 51C39.1986 52.68 37.8786 54 36.1986 54ZM60.1986 54C58.5186 54 57.1986 52.68 57.1986 51C57.1986 49.32 58.5186 48 60.1986 48C61.8786 48 63.1986 49.32 63.1986 51C63.1986 52.68 61.8786 54 60.1986 54ZM72.1986 54C70.5186 54 69.1986 52.68 69.1986 51C69.1986 49.32 70.5186 48 72.1986 48C73.8786 48 75.1986 49.32 75.1986 51C75.1986 52.68 73.8786 54 72.1986 54ZM78.1986 60C76.5186 60 75.1986 58.68 75.1986 57C75.1986 55.32 76.5186 54 78.1986 54C79.8786 54 81.1986 55.32 81.1986 57C81.1986 58.68 79.8786 60 78.1986 60ZM72.1986 60C70.5186 60 69.1986 58.68 69.1986 57C69.1986 55.32 70.5186 54 72.1986 54C73.8786 54 75.1986 55.32 75.1986 57C75.1986 58.68 73.8786 60 72.1986 60ZM66.1986 60C64.5186 60 63.1986 58.68 63.1986 57C63.1986 55.32 64.5186 54 66.1986 54C67.8786 54 69.1986 55.32 69.1986 57C69.1986 58.68 67.8786 60 66.1986 60ZM54.1986 60C52.5186 60 51.1986 58.68 51.1986 57C51.1986 55.32 52.5186 54 54.1986 54C55.8786 54 57.1986 55.32 57.1986 57C57.1986 58.68 55.8786 60 54.1986 60ZM48.1986 60C46.5186 60 45.1986 58.68 45.1986 57C45.1986 55.32 46.5186 54 48.1986 54C49.8786 54 51.1986 55.32 51.1986 57C51.1986 58.68 49.8786 60 48.1986 60ZM42.1986 60C40.5186 60 39.1986 58.68 39.1986 57C39.1986 55.32 40.5186 54 42.1986 54C43.8786 54 45.1986 55.32 45.1986 57C45.1986 58.68 43.8786 60 42.1986 60ZM60.1986 60C58.5186 60 57.1986 58.68 57.1986 57C57.1986 55.32 58.5186 54 60.1986 54C61.8786 54 63.1986 55.32 63.1986 57C63.1986 58.68 61.8786 60 60.1986 60ZM110.359 6C108.679 6 107.359 4.68 107.359 3C107.359 1.32 108.679 0 110.359 0C112.039 0 113.359 1.32 113.359 3C113.359 4.68 112.039 6 110.359 6ZM122.359 6C120.679 6 119.359 4.68 119.359 3C119.359 1.32 120.679 0 122.359 0C124.039 0 125.359 1.32 125.359 3C125.359 4.68 124.039 6 122.359 6ZM116.359 6C114.679 6 113.359 4.68 113.359 3C113.359 1.32 114.679 0 116.359 0C118.039 0 119.359 1.32 119.359 3C119.359 4.68 118.039 6 116.359 6ZM128.359 6C126.679 6 125.359 4.68 125.359 3C125.359 1.32 126.679 0 128.359 0C130.039 0 131.359 1.32 131.359 3C131.359 4.68 130.039 6 128.359 6ZM140.359 12C138.679 12 137.359 10.68 137.359 9C137.359 7.32 138.679 6 140.359 6C142.039 6 143.359 7.32 143.359 9C143.359 10.68 142.039 12 140.359 12ZM116.359 12C114.679 12 113.359 10.68 113.359 9C113.359 7.32 114.679 6 116.359 6C118.039 6 119.359 7.32 119.359 9C119.359 10.68 118.039 12 116.359 12ZM110.359 12C108.679 12 107.359 10.68 107.359 9C107.359 7.32 108.679 6 110.359 6C112.039 6 113.359 7.32 113.359 9C113.359 10.68 112.039 12 110.359 12ZM122.359 12C120.679 12 119.359 10.68 119.359 9C119.359 7.32 120.679 6 122.359 6C124.039 6 125.359 7.32 125.359 9C125.359 10.68 124.039 12 122.359 12ZM98.3586 12C96.6786 12 95.3586 10.68 95.3586 9C95.3586 7.32 96.6786 6 98.3586 6C100.039 6 101.359 7.32 101.359 9C101.359 10.68 100.039 12 98.3586 12ZM104.359 12C102.679 12 101.359 10.68 101.359 9C101.359 7.32 102.679 6 104.359 6C106.039 6 107.359 7.32 107.359 9C107.359 10.68 106.039 12 104.359 12ZM134.359 12C132.679 12 131.359 10.68 131.359 9C131.359 7.32 132.679 6 134.359 6C136.039 6 137.359 7.32 137.359 9C137.359 10.68 136.039 12 134.359 12ZM128.359 12C126.679 12 125.359 10.68 125.359 9C125.359 7.32 126.679 6 128.359 6C130.039 6 131.359 7.32 131.359 9C131.359 10.68 130.039 12 128.359 12ZM110.359 18C108.679 18 107.359 16.68 107.359 15C107.359 13.32 108.679 12 110.359 12C112.039 12 113.359 13.32 113.359 15C113.359 16.68 112.039 18 110.359 18ZM134.359 18C132.679 18 131.359 16.68 131.359 15C131.359 13.32 132.679 12 134.359 12C136.039 12 137.359 13.32 137.359 15C137.359 16.68 136.039 18 134.359 18ZM104.359 18C102.679 18 101.359 16.68 101.359 15C101.359 13.32 102.679 12 104.359 12C106.039 12 107.359 13.32 107.359 15C107.359 16.68 106.039 18 104.359 18ZM140.359 18C138.679 18 137.359 16.68 137.359 15C137.359 13.32 138.679 12 140.359 12C142.039 12 143.359 13.32 143.359 15C143.359 16.68 142.039 18 140.359 18ZM128.359 18C126.679 18 125.359 16.68 125.359 15C125.359 13.32 126.679 12 128.359 12C130.039 12 131.359 13.32 131.359 15C131.359 16.68 130.039 18 128.359 18ZM98.3586 18C96.6786 18 95.3586 16.68 95.3586 15C95.3586 13.32 96.6786 12 98.3586 12C100.039 12 101.359 13.32 101.359 15C101.359 16.68 100.039 18 98.3586 18ZM140.359 24C138.679 24 137.359 22.68 137.359 21C137.359 19.32 138.679 18 140.359 18C142.039 18 143.359 19.32 143.359 21C143.359 22.68 142.039 24 140.359 24ZM98.3586 24C96.6786 24 95.3586 22.68 95.3586 21C95.3586 19.32 96.6786 18 98.3586 18C100.039 18 101.359 19.32 101.359 21C101.359 22.68 100.039 24 98.3586 24ZM146.359 24C144.679 24 143.359 22.68 143.359 21C143.359 19.32 144.679 18 146.359 18C148.039 18 149.359 19.32 149.359 21C149.359 22.68 148.039 24 146.359 24ZM128.359 24C126.679 24 125.359 22.68 125.359 21C125.359 19.32 126.679 18 128.359 18C130.039 18 131.359 19.32 131.359 21C131.359 22.68 130.039 24 128.359 24ZM104.359 24C102.679 24 101.359 22.68 101.359 21C101.359 19.32 102.679 18 104.359 18C106.039 18 107.359 19.32 107.359 21C107.359 22.68 106.039 24 104.359 24ZM92.3586 24C90.6786 24 89.3586 22.68 89.3586 21C89.3586 19.32 90.6786 18 92.3586 18C94.0386 18 95.3586 19.32 95.3586 21C95.3586 22.68 94.0386 24 92.3586 24ZM110.359 24C108.679 24 107.359 22.68 107.359 21C107.359 19.32 108.679 18 110.359 18C112.039 18 113.359 19.32 113.359 21C113.359 22.68 112.039 24 110.359 24ZM134.359 24C132.679 24 131.359 22.68 131.359 21C131.359 19.32 132.679 18 134.359 18C136.039 18 137.359 19.32 137.359 21C137.359 22.68 136.039 24 134.359 24ZM146.359 30C144.679 30 143.359 28.68 143.359 27C143.359 25.32 144.679 24 146.359 24C148.039 24 149.359 25.32 149.359 27C149.359 28.68 148.039 30 146.359 30ZM140.359 30C138.679 30 137.359 28.68 137.359 27C137.359 25.32 138.679 24 140.359 24C142.039 24 143.359 25.32 143.359 27C143.359 28.68 142.039 30 140.359 30ZM134.359 30C132.679 30 131.359 28.68 131.359 27C131.359 25.32 132.679 24 134.359 24C136.039 24 137.359 25.32 137.359 27C137.359 28.68 136.039 30 134.359 30ZM128.359 30C126.679 30 125.359 28.68 125.359 27C125.359 25.32 126.679 24 128.359 24C130.039 24 131.359 25.32 131.359 27C131.359 28.68 130.039 30 128.359 30ZM110.359 30C108.679 30 107.359 28.68 107.359 27C107.359 25.32 108.679 24 110.359 24C112.039 24 113.359 25.32 113.359 27C113.359 28.68 112.039 30 110.359 30ZM104.359 30C102.679 30 101.359 28.68 101.359 27C101.359 25.32 102.679 24 104.359 24C106.039 24 107.359 25.32 107.359 27C107.359 28.68 106.039 30 104.359 30ZM98.3586 30C96.6786 30 95.3586 28.68 95.3586 27C95.3586 25.32 96.6786 24 98.3586 24C100.039 24 101.359 25.32 101.359 27C101.359 28.68 100.039 30 98.3586 30ZM92.3586 30C90.6786 30 89.3586 28.68 89.3586 27C89.3586 25.32 90.6786 24 92.3586 24C94.0386 24 95.3586 25.32 95.3586 27C95.3586 28.68 94.0386 30 92.3586 30ZM134.359 36C132.679 36 131.359 34.68 131.359 33C131.359 31.32 132.679 30 134.359 30C136.039 30 137.359 31.32 137.359 33C137.359 34.68 136.039 36 134.359 36ZM98.3586 36C96.6786 36 95.3586 34.68 95.3586 33C95.3586 31.32 96.6786 30 98.3586 30C100.039 30 101.359 31.32 101.359 33C101.359 34.68 100.039 36 98.3586 36ZM110.359 36C108.679 36 107.359 34.68 107.359 33C107.359 31.32 108.679 30 110.359 30C112.039 30 113.359 31.32 113.359 33C113.359 34.68 112.039 36 110.359 36ZM146.359 36C144.679 36 143.359 34.68 143.359 33C143.359 31.32 144.679 30 146.359 30C148.039 30 149.359 31.32 149.359 33C149.359 34.68 148.039 36 146.359 36ZM128.359 36C126.679 36 125.359 34.68 125.359 33C125.359 31.32 126.679 30 128.359 30C130.039 30 131.359 31.32 131.359 33C131.359 34.68 130.039 36 128.359 36ZM104.359 36C102.679 36 101.359 34.68 101.359 33C101.359 31.32 102.679 30 104.359 30C106.039 30 107.359 31.32 107.359 33C107.359 34.68 106.039 36 104.359 36ZM140.359 36C138.679 36 137.359 34.68 137.359 33C137.359 31.32 138.679 30 140.359 30C142.039 30 143.359 31.32 143.359 33C143.359 34.68 142.039 36 140.359 36ZM92.3586 36C90.6786 36 89.3586 34.68 89.3586 33C89.3586 31.32 90.6786 30 92.3586 30C94.0386 30 95.3586 31.32 95.3586 33C95.3586 34.68 94.0386 36 92.3586 36ZM134.359 42C132.679 42 131.359 40.68 131.359 39C131.359 37.32 132.679 36 134.359 36C136.039 36 137.359 37.32 137.359 39C137.359 40.68 136.039 42 134.359 42ZM98.3586 42C96.6786 42 95.3586 40.68 95.3586 39C95.3586 37.32 96.6786 36 98.3586 36C100.039 36 101.359 37.32 101.359 39C101.359 40.68 100.039 42 98.3586 42ZM92.3586 42C90.6786 42 89.3586 40.68 89.3586 39C89.3586 37.32 90.6786 36 92.3586 36C94.0386 36 95.3586 37.32 95.3586 39C95.3586 40.68 94.0386 42 92.3586 42ZM146.359 42C144.679 42 143.359 40.68 143.359 39C143.359 37.32 144.679 36 146.359 36C148.039 36 149.359 37.32 149.359 39C149.359 40.68 148.039 42 146.359 42ZM140.359 42C138.679 42 137.359 40.68 137.359 39C137.359 37.32 138.679 36 140.359 36C142.039 36 143.359 37.32 143.359 39C143.359 40.68 142.039 42 140.359 42ZM110.359 42C108.679 42 107.359 40.68 107.359 39C107.359 37.32 108.679 36 110.359 36C112.039 36 113.359 37.32 113.359 39C113.359 40.68 112.039 42 110.359 42ZM104.359 42C102.679 42 101.359 40.68 101.359 39C101.359 37.32 102.679 36 104.359 36C106.039 36 107.359 37.32 107.359 39C107.359 40.68 106.039 42 104.359 42ZM128.359 42C126.679 42 125.359 40.68 125.359 39C125.359 37.32 126.679 36 128.359 36C130.039 36 131.359 37.32 131.359 39C131.359 40.68 130.039 42 128.359 42ZM134.359 48C132.679 48 131.359 46.68 131.359 45C131.359 43.32 132.679 42 134.359 42C136.039 42 137.359 43.32 137.359 45C137.359 46.68 136.039 48 134.359 48ZM140.359 48C138.679 48 137.359 46.68 137.359 45C137.359 43.32 138.679 42 140.359 42C142.039 42 143.359 43.32 143.359 45C143.359 46.68 142.039 48 140.359 48ZM98.3586 48C96.6786 48 95.3586 46.68 95.3586 45C95.3586 43.32 96.6786 42 98.3586 42C100.039 42 101.359 43.32 101.359 45C101.359 46.68 100.039 48 98.3586 48ZM104.359 48C102.679 48 101.359 46.68 101.359 45C101.359 43.32 102.679 42 104.359 42C106.039 42 107.359 43.32 107.359 45C107.359 46.68 106.039 48 104.359 48ZM128.359 48C126.679 48 125.359 46.68 125.359 45C125.359 43.32 126.679 42 128.359 42C130.039 42 131.359 43.32 131.359 45C131.359 46.68 130.039 48 128.359 48ZM110.359 48C108.679 48 107.359 46.68 107.359 45C107.359 43.32 108.679 42 110.359 42C112.039 42 113.359 43.32 113.359 45C113.359 46.68 112.039 48 110.359 48ZM134.359 54C132.679 54 131.359 52.68 131.359 51C131.359 49.32 132.679 48 134.359 48C136.039 48 137.359 49.32 137.359 51C137.359 52.68 136.039 54 134.359 54ZM116.359 54C114.679 54 113.359 52.68 113.359 51C113.359 49.32 114.679 48 116.359 48C118.039 48 119.359 49.32 119.359 51C119.359 52.68 118.039 54 116.359 54ZM122.359 54C120.679 54 119.359 52.68 119.359 51C119.359 49.32 120.679 48 122.359 48C124.039 48 125.359 49.32 125.359 51C125.359 52.68 124.039 54 122.359 54ZM98.3586 54C96.6786 54 95.3586 52.68 95.3586 51C95.3586 49.32 96.6786 48 98.3586 48C100.039 48 101.359 49.32 101.359 51C101.359 52.68 100.039 54 98.3586 54ZM140.359 54C138.679 54 137.359 52.68 137.359 51C137.359 49.32 138.679 48 140.359 48C142.039 48 143.359 49.32 143.359 51C143.359 52.68 142.039 54 140.359 54ZM110.359 54C108.679 54 107.359 52.68 107.359 51C107.359 49.32 108.679 48 110.359 48C112.039 48 113.359 49.32 113.359 51C113.359 52.68 112.039 54 110.359 54ZM128.359 54C126.679 54 125.359 52.68 125.359 51C125.359 49.32 126.679 48 128.359 48C130.039 48 131.359 49.32 131.359 51C131.359 52.68 130.039 54 128.359 54ZM104.359 54C102.679 54 101.359 52.68 101.359 51C101.359 49.32 102.679 48 104.359 48C106.039 48 107.359 49.32 107.359 51C107.359 52.68 106.039 54 104.359 54ZM116.359 60C114.679 60 113.359 58.68 113.359 57C113.359 55.32 114.679 54 116.359 54C118.039 54 119.359 55.32 119.359 57C119.359 58.68 118.039 60 116.359 60ZM122.359 60C120.679 60 119.359 58.68 119.359 57C119.359 55.32 120.679 54 122.359 54C124.039 54 125.359 55.32 125.359 57C125.359 58.68 124.039 60 122.359 60ZM110.359 60C108.679 60 107.359 58.68 107.359 57C107.359 55.32 108.679 54 110.359 54C112.039 54 113.359 55.32 113.359 57C113.359 58.68 112.039 60 110.359 60ZM128.359 60C126.679 60 125.359 58.68 125.359 57C125.359 55.32 126.679 54 128.359 54C130.039 54 131.359 55.32 131.359 57C131.359 58.68 130.039 60 128.359 60ZM172.519 6C170.839 6 169.519 4.68 169.519 3C169.519 1.32 170.839 0 172.519 0C174.199 0 175.519 1.32 175.519 3C175.519 4.68 174.199 6 172.519 6ZM184.519 6C182.839 6 181.519 4.68 181.519 3C181.519 1.32 182.839 0 184.519 0C186.199 0 187.519 1.32 187.519 3C187.519 4.68 186.199 6 184.519 6ZM178.519 6C176.839 6 175.519 4.68 175.519 3C175.519 1.32 176.839 0 178.519 0C180.199 0 181.519 1.32 181.519 3C181.519 4.68 180.199 6 178.519 6ZM190.519 6C188.839 6 187.519 4.68 187.519 3C187.519 1.32 188.839 0 190.519 0C192.199 0 193.519 1.32 193.519 3C193.519 4.68 192.199 6 190.519 6ZM202.519 12C200.839 12 199.519 10.68 199.519 9C199.519 7.32 200.839 6 202.519 6C204.199 6 205.519 7.32 205.519 9C205.519 10.68 204.199 12 202.519 12ZM178.519 12C176.839 12 175.519 10.68 175.519 9C175.519 7.32 176.839 6 178.519 6C180.199 6 181.519 7.32 181.519 9C181.519 10.68 180.199 12 178.519 12ZM172.519 12C170.839 12 169.519 10.68 169.519 9C169.519 7.32 170.839 6 172.519 6C174.199 6 175.519 7.32 175.519 9C175.519 10.68 174.199 12 172.519 12ZM184.519 12C182.839 12 181.519 10.68 181.519 9C181.519 7.32 182.839 6 184.519 6C186.199 6 187.519 7.32 187.519 9C187.519 10.68 186.199 12 184.519 12ZM160.519 12C158.839 12 157.519 10.68 157.519 9C157.519 7.32 158.839 6 160.519 6C162.199 6 163.519 7.32 163.519 9C163.519 10.68 162.199 12 160.519 12ZM166.519 12C164.839 12 163.519 10.68 163.519 9C163.519 7.32 164.839 6 166.519 6C168.199 6 169.519 7.32 169.519 9C169.519 10.68 168.199 12 166.519 12ZM196.519 12C194.839 12 193.519 10.68 193.519 9C193.519 7.32 194.839 6 196.519 6C198.199 6 199.519 7.32 199.519 9C199.519 10.68 198.199 12 196.519 12ZM190.519 12C188.839 12 187.519 10.68 187.519 9C187.519 7.32 188.839 6 190.519 6C192.199 6 193.519 7.32 193.519 9C193.519 10.68 192.199 12 190.519 12ZM172.519 18C170.839 18 169.519 16.68 169.519 15C169.519 13.32 170.839 12 172.519 12C174.199 12 175.519 13.32 175.519 15C175.519 16.68 174.199 18 172.519 18ZM196.519 18C194.839 18 193.519 16.68 193.519 15C193.519 13.32 194.839 12 196.519 12C198.199 12 199.519 13.32 199.519 15C199.519 16.68 198.199 18 196.519 18ZM166.519 18C164.839 18 163.519 16.68 163.519 15C163.519 13.32 164.839 12 166.519 12C168.199 12 169.519 13.32 169.519 15C169.519 16.68 168.199 18 166.519 18ZM202.519 18C200.839 18 199.519 16.68 199.519 15C199.519 13.32 200.839 12 202.519 12C204.199 12 205.519 13.32 205.519 15C205.519 16.68 204.199 18 202.519 18ZM190.519 18C188.839 18 187.519 16.68 187.519 15C187.519 13.32 188.839 12 190.519 12C192.199 12 193.519 13.32 193.519 15C193.519 16.68 192.199 18 190.519 18ZM160.519 18C158.839 18 157.519 16.68 157.519 15C157.519 13.32 158.839 12 160.519 12C162.199 12 163.519 13.32 163.519 15C163.519 16.68 162.199 18 160.519 18ZM202.519 24C200.839 24 199.519 22.68 199.519 21C199.519 19.32 200.839 18 202.519 18C204.199 18 205.519 19.32 205.519 21C205.519 22.68 204.199 24 202.519 24ZM160.519 24C158.839 24 157.519 22.68 157.519 21C157.519 19.32 158.839 18 160.519 18C162.199 18 163.519 19.32 163.519 21C163.519 22.68 162.199 24 160.519 24ZM208.519 24C206.839 24 205.519 22.68 205.519 21C205.519 19.32 206.839 18 208.519 18C210.199 18 211.519 19.32 211.519 21C211.519 22.68 210.199 24 208.519 24ZM190.519 24C188.839 24 187.519 22.68 187.519 21C187.519 19.32 188.839 18 190.519 18C192.199 18 193.519 19.32 193.519 21C193.519 22.68 192.199 24 190.519 24ZM166.519 24C164.839 24 163.519 22.68 163.519 21C163.519 19.32 164.839 18 166.519 18C168.199 18 169.519 19.32 169.519 21C169.519 22.68 168.199 24 166.519 24ZM154.519 24C152.839 24 151.519 22.68 151.519 21C151.519 19.32 152.839 18 154.519 18C156.199 18 157.519 19.32 157.519 21C157.519 22.68 156.199 24 154.519 24ZM172.519 24C170.839 24 169.519 22.68 169.519 21C169.519 19.32 170.839 18 172.519 18C174.199 18 175.519 19.32 175.519 21C175.519 22.68 174.199 24 172.519 24ZM196.519 24C194.839 24 193.519 22.68 193.519 21C193.519 19.32 194.839 18 196.519 18C198.199 18 199.519 19.32 199.519 21C199.519 22.68 198.199 24 196.519 24ZM208.519 30C206.839 30 205.519 28.68 205.519 27C205.519 25.32 206.839 24 208.519 24C210.199 24 211.519 25.32 211.519 27C211.519 28.68 210.199 30 208.519 30ZM202.519 30C200.839 30 199.519 28.68 199.519 27C199.519 25.32 200.839 24 202.519 24C204.199 24 205.519 25.32 205.519 27C205.519 28.68 204.199 30 202.519 30ZM196.519 30C194.839 30 193.519 28.68 193.519 27C193.519 25.32 194.839 24 196.519 24C198.199 24 199.519 25.32 199.519 27C199.519 28.68 198.199 30 196.519 30ZM190.519 30C188.839 30 187.519 28.68 187.519 27C187.519 25.32 188.839 24 190.519 24C192.199 24 193.519 25.32 193.519 27C193.519 28.68 192.199 30 190.519 30ZM172.519 30C170.839 30 169.519 28.68 169.519 27C169.519 25.32 170.839 24 172.519 24C174.199 24 175.519 25.32 175.519 27C175.519 28.68 174.199 30 172.519 30ZM166.519 30C164.839 30 163.519 28.68 163.519 27C163.519 25.32 164.839 24 166.519 24C168.199 24 169.519 25.32 169.519 27C169.519 28.68 168.199 30 166.519 30ZM160.519 30C158.839 30 157.519 28.68 157.519 27C157.519 25.32 158.839 24 160.519 24C162.199 24 163.519 25.32 163.519 27C163.519 28.68 162.199 30 160.519 30ZM154.519 30C152.839 30 151.519 28.68 151.519 27C151.519 25.32 152.839 24 154.519 24C156.199 24 157.519 25.32 157.519 27C157.519 28.68 156.199 30 154.519 30ZM196.519 36C194.839 36 193.519 34.68 193.519 33C193.519 31.32 194.839 30 196.519 30C198.199 30 199.519 31.32 199.519 33C199.519 34.68 198.199 36 196.519 36ZM160.519 36C158.839 36 157.519 34.68 157.519 33C157.519 31.32 158.839 30 160.519 30C162.199 30 163.519 31.32 163.519 33C163.519 34.68 162.199 36 160.519 36ZM172.519 36C170.839 36 169.519 34.68 169.519 33C169.519 31.32 170.839 30 172.519 30C174.199 30 175.519 31.32 175.519 33C175.519 34.68 174.199 36 172.519 36ZM208.519 36C206.839 36 205.519 34.68 205.519 33C205.519 31.32 206.839 30 208.519 30C210.199 30 211.519 31.32 211.519 33C211.519 34.68 210.199 36 208.519 36ZM190.519 36C188.839 36 187.519 34.68 187.519 33C187.519 31.32 188.839 30 190.519 30C192.199 30 193.519 31.32 193.519 33C193.519 34.68 192.199 36 190.519 36ZM166.519 36C164.839 36 163.519 34.68 163.519 33C163.519 31.32 164.839 30 166.519 30C168.199 30 169.519 31.32 169.519 33C169.519 34.68 168.199 36 166.519 36ZM202.519 36C200.839 36 199.519 34.68 199.519 33C199.519 31.32 200.839 30 202.519 30C204.199 30 205.519 31.32 205.519 33C205.519 34.68 204.199 36 202.519 36ZM154.519 36C152.839 36 151.519 34.68 151.519 33C151.519 31.32 152.839 30 154.519 30C156.199 30 157.519 31.32 157.519 33C157.519 34.68 156.199 36 154.519 36ZM196.519 42C194.839 42 193.519 40.68 193.519 39C193.519 37.32 194.839 36 196.519 36C198.199 36 199.519 37.32 199.519 39C199.519 40.68 198.199 42 196.519 42ZM160.519 42C158.839 42 157.519 40.68 157.519 39C157.519 37.32 158.839 36 160.519 36C162.199 36 163.519 37.32 163.519 39C163.519 40.68 162.199 42 160.519 42ZM154.519 42C152.839 42 151.519 40.68 151.519 39C151.519 37.32 152.839 36 154.519 36C156.199 36 157.519 37.32 157.519 39C157.519 40.68 156.199 42 154.519 42ZM208.519 42C206.839 42 205.519 40.68 205.519 39C205.519 37.32 206.839 36 208.519 36C210.199 36 211.519 37.32 211.519 39C211.519 40.68 210.199 42 208.519 42ZM202.519 42C200.839 42 199.519 40.68 199.519 39C199.519 37.32 200.839 36 202.519 36C204.199 36 205.519 37.32 205.519 39C205.519 40.68 204.199 42 202.519 42ZM172.519 42C170.839 42 169.519 40.68 169.519 39C169.519 37.32 170.839 36 172.519 36C174.199 36 175.519 37.32 175.519 39C175.519 40.68 174.199 42 172.519 42ZM166.519 42C164.839 42 163.519 40.68 163.519 39C163.519 37.32 164.839 36 166.519 36C168.199 36 169.519 37.32 169.519 39C169.519 40.68 168.199 42 166.519 42ZM190.519 42C188.839 42 187.519 40.68 187.519 39C187.519 37.32 188.839 36 190.519 36C192.199 36 193.519 37.32 193.519 39C193.519 40.68 192.199 42 190.519 42ZM196.519 48C194.839 48 193.519 46.68 193.519 45C193.519 43.32 194.839 42 196.519 42C198.199 42 199.519 43.32 199.519 45C199.519 46.68 198.199 48 196.519 48ZM202.519 48C200.839 48 199.519 46.68 199.519 45C199.519 43.32 200.839 42 202.519 42C204.199 42 205.519 43.32 205.519 45C205.519 46.68 204.199 48 202.519 48ZM160.519 48C158.839 48 157.519 46.68 157.519 45C157.519 43.32 158.839 42 160.519 42C162.199 42 163.519 43.32 163.519 45C163.519 46.68 162.199 48 160.519 48ZM166.519 48C164.839 48 163.519 46.68 163.519 45C163.519 43.32 164.839 42 166.519 42C168.199 42 169.519 43.32 169.519 45C169.519 46.68 168.199 48 166.519 48ZM190.519 48C188.839 48 187.519 46.68 187.519 45C187.519 43.32 188.839 42 190.519 42C192.199 42 193.519 43.32 193.519 45C193.519 46.68 192.199 48 190.519 48ZM172.519 48C170.839 48 169.519 46.68 169.519 45C169.519 43.32 170.839 42 172.519 42C174.199 42 175.519 43.32 175.519 45C175.519 46.68 174.199 48 172.519 48ZM196.519 54C194.839 54 193.519 52.68 193.519 51C193.519 49.32 194.839 48 196.519 48C198.199 48 199.519 49.32 199.519 51C199.519 52.68 198.199 54 196.519 54ZM178.519 54C176.839 54 175.519 52.68 175.519 51C175.519 49.32 176.839 48 178.519 48C180.199 48 181.519 49.32 181.519 51C181.519 52.68 180.199 54 178.519 54ZM184.519 54C182.839 54 181.519 52.68 181.519 51C181.519 49.32 182.839 48 184.519 48C186.199 48 187.519 49.32 187.519 51C187.519 52.68 186.199 54 184.519 54ZM160.519 54C158.839 54 157.519 52.68 157.519 51C157.519 49.32 158.839 48 160.519 48C162.199 48 163.519 49.32 163.519 51C163.519 52.68 162.199 54 160.519 54ZM202.519 54C200.839 54 199.519 52.68 199.519 51C199.519 49.32 200.839 48 202.519 48C204.199 48 205.519 49.32 205.519 51C205.519 52.68 204.199 54 202.519 54ZM172.519 54C170.839 54 169.519 52.68 169.519 51C169.519 49.32 170.839 48 172.519 48C174.199 48 175.519 49.32 175.519 51C175.519 52.68 174.199 54 172.519 54ZM190.519 54C188.839 54 187.519 52.68 187.519 51C187.519 49.32 188.839 48 190.519 48C192.199 48 193.519 49.32 193.519 51C193.519 52.68 192.199 54 190.519 54ZM166.519 54C164.839 54 163.519 52.68 163.519 51C163.519 49.32 164.839 48 166.519 48C168.199 48 169.519 49.32 169.519 51C169.519 52.68 168.199 54 166.519 54ZM178.519 60C176.839 60 175.519 58.68 175.519 57C175.519 55.32 176.839 54 178.519 54C180.199 54 181.519 55.32 181.519 57C181.519 58.68 180.199 60 178.519 60ZM184.519 60C182.839 60 181.519 58.68 181.519 57C181.519 55.32 182.839 54 184.519 54C186.199 54 187.519 55.32 187.519 57C187.519 58.68 186.199 60 184.519 60ZM172.519 60C170.839 60 169.519 58.68 169.519 57C169.519 55.32 170.839 54 172.519 54C174.199 54 175.519 55.32 175.519 57C175.519 58.68 174.199 60 172.519 60ZM190.519 60C188.839 60 187.519 58.68 187.519 57C187.519 55.32 188.839 54 190.519 54C192.199 54 193.519 55.32 193.519 57C193.519 58.68 192.199 60 190.519 60ZM240.679 12C238.999 12 237.679 10.68 237.679 9C237.679 7.32 238.999 6 240.679 6C242.359 6 243.679 7.32 243.679 9C243.679 10.68 242.359 12 240.679 12ZM234.679 12C232.999 12 231.679 10.68 231.679 9C231.679 7.32 232.999 6 234.679 6C236.359 6 237.679 7.32 237.679 9C237.679 10.68 236.359 12 234.679 12ZM234.679 18C232.999 18 231.679 16.68 231.679 15C231.679 13.32 232.999 12 234.679 12C236.359 12 237.679 13.32 237.679 15C237.679 16.68 236.359 18 234.679 18ZM240.679 18C238.999 18 237.679 16.68 237.679 15C237.679 13.32 238.999 12 240.679 12C242.359 12 243.679 13.32 243.679 15C243.679 16.68 242.359 18 240.679 18ZM234.679 24C232.999 24 231.679 22.68 231.679 21C231.679 19.32 232.999 18 234.679 18C236.359 18 237.679 19.32 237.679 21C237.679 22.68 236.359 24 234.679 24ZM240.679 24C238.999 24 237.679 22.68 237.679 21C237.679 19.32 238.999 18 240.679 18C242.359 18 243.679 19.32 243.679 21C243.679 22.68 242.359 24 240.679 24ZM234.679 30C232.999 30 231.679 28.68 231.679 27C231.679 25.32 232.999 24 234.679 24C236.359 24 237.679 25.32 237.679 27C237.679 28.68 236.359 30 234.679 30ZM216.679 30C214.999 30 213.679 28.68 213.679 27C213.679 25.32 214.999 24 216.679 24C218.359 24 219.679 25.32 219.679 27C219.679 28.68 218.359 30 216.679 30ZM222.679 30C220.999 30 219.679 28.68 219.679 27C219.679 25.32 220.999 24 222.679 24C224.359 24 225.679 25.32 225.679 27C225.679 28.68 224.359 30 222.679 30ZM228.679 30C226.999 30 225.679 28.68 225.679 27C225.679 25.32 226.999 24 228.679 24C230.359 24 231.679 25.32 231.679 27C231.679 28.68 230.359 30 228.679 30ZM240.679 30C238.999 30 237.679 28.68 237.679 27C237.679 25.32 238.999 24 240.679 24C242.359 24 243.679 25.32 243.679 27C243.679 28.68 242.359 30 240.679 30ZM246.679 30C244.999 30 243.679 28.68 243.679 27C243.679 25.32 244.999 24 246.679 24C248.359 24 249.679 25.32 249.679 27C249.679 28.68 248.359 30 246.679 30ZM252.679 30C250.999 30 249.679 28.68 249.679 27C249.679 25.32 250.999 24 252.679 24C254.359 24 255.679 25.32 255.679 27C255.679 28.68 254.359 30 252.679 30ZM258.679 30C256.999 30 255.679 28.68 255.679 27C255.679 25.32 256.999 24 258.679 24C260.359 24 261.679 25.32 261.679 27C261.679 28.68 260.359 30 258.679 30ZM216.679 36C214.999 36 213.679 34.68 213.679 33C213.679 31.32 214.999 30 216.679 30C218.359 30 219.679 31.32 219.679 33C219.679 34.68 218.359 36 216.679 36ZM222.679 36C220.999 36 219.679 34.68 219.679 33C219.679 31.32 220.999 30 222.679 30C224.359 30 225.679 31.32 225.679 33C225.679 34.68 224.359 36 222.679 36ZM228.679 36C226.999 36 225.679 34.68 225.679 33C225.679 31.32 226.999 30 228.679 30C230.359 30 231.679 31.32 231.679 33C231.679 34.68 230.359 36 228.679 36ZM240.679 36C238.999 36 237.679 34.68 237.679 33C237.679 31.32 238.999 30 240.679 30C242.359 30 243.679 31.32 243.679 33C243.679 34.68 242.359 36 240.679 36ZM246.679 36C244.999 36 243.679 34.68 243.679 33C243.679 31.32 244.999 30 246.679 30C248.359 30 249.679 31.32 249.679 33C249.679 34.68 248.359 36 246.679 36ZM252.679 36C250.999 36 249.679 34.68 249.679 33C249.679 31.32 250.999 30 252.679 30C254.359 30 255.679 31.32 255.679 33C255.679 34.68 254.359 36 252.679 36ZM234.679 36C232.999 36 231.679 34.68 231.679 33C231.679 31.32 232.999 30 234.679 30C236.359 30 237.679 31.32 237.679 33C237.679 34.68 236.359 36 234.679 36ZM258.679 36C256.999 36 255.679 34.68 255.679 33C255.679 31.32 256.999 30 258.679 30C260.359 30 261.679 31.32 261.679 33C261.679 34.68 260.359 36 258.679 36ZM234.679 42C232.999 42 231.679 40.68 231.679 39C231.679 37.32 232.999 36 234.679 36C236.359 36 237.679 37.32 237.679 39C237.679 40.68 236.359 42 234.679 42ZM240.679 42C238.999 42 237.679 40.68 237.679 39C237.679 37.32 238.999 36 240.679 36C242.359 36 243.679 37.32 243.679 39C243.679 40.68 242.359 42 240.679 42ZM234.679 48C232.999 48 231.679 46.68 231.679 45C231.679 43.32 232.999 42 234.679 42C236.359 42 237.679 43.32 237.679 45C237.679 46.68 236.359 48 234.679 48ZM240.679 48C238.999 48 237.679 46.68 237.679 45C237.679 43.32 238.999 42 240.679 42C242.359 42 243.679 43.32 243.679 45C243.679 46.68 242.359 48 240.679 48ZM234.679 54C232.999 54 231.679 52.68 231.679 51C231.679 49.32 232.999 48 234.679 48C236.359 48 237.679 49.32 237.679 51C237.679 52.68 236.359 54 234.679 54ZM240.679 54C238.999 54 237.679 52.68 237.679 51C237.679 49.32 238.999 48 240.679 48C242.359 48 243.679 49.32 243.679 51C243.679 52.68 242.359 54 240.679 54ZM40.0871 104L45.501 76.1344H51.711L47.3321 98.5861H58.8367L57.8016 104H40.0871ZM68.742 104.398C63.1291 104.398 59.1483 100.298 60.4221 94.4063L61.0591 91.4605C62.2135 86.166 66.4331 83.4591 71.4888 83.4591C77.0221 83.4591 80.9631 87.5195 79.8882 93.1324L79.2513 96.4365C78.2959 101.333 73.917 104.398 68.742 104.398ZM70.9314 88.873C68.9809 88.873 67.5876 90.0672 67.1895 92.1372L66.6322 95.083C66.1943 97.3123 67.0701 98.9842 69.2595 98.9842C71.648 98.9842 72.7228 97.4317 73.1607 95.083L73.6782 92.3363C74.0763 90.2662 72.882 88.873 70.9314 88.873ZM90.1683 98.9842C91.4422 98.9842 92.1587 98.3473 92.6763 97.2724H98.9659C97.8115 101.373 94.5472 104.398 89.7703 104.398C83.5204 104.398 80.495 100.457 81.6096 94.4461L82.0873 91.8586C83.1223 86.166 87.2624 83.4591 92.2782 83.4591C96.9357 83.4591 100.319 86.3651 99.9213 90.8634H93.8307C93.8705 89.6691 93.1938 88.873 91.6412 88.873C89.7703 88.873 88.8547 89.9478 88.2974 92.7741L87.9391 94.6053C87.3022 97.8696 88.4168 98.9842 90.1683 98.9842ZM112.277 104L112.795 101.253C111.441 103.164 109.371 104.398 106.784 104.398C101.927 104.398 99.9767 99.9794 100.852 95.2422L101.33 92.6547C102.246 87.6389 105.271 83.4591 110.406 83.4591C112.994 83.4591 114.825 84.8922 115.581 86.9622L116.179 83.8572H122.389L118.487 104H112.277ZM111.322 88.873C109.093 88.873 108.097 90.8634 107.66 93.013L107.301 94.8442C106.863 96.9938 107.779 98.9842 109.968 98.9842C112.198 98.9842 113.591 97.153 113.989 95.1228L114.427 92.8936C114.865 90.6643 113.551 88.873 111.322 88.873ZM129.775 96.7549C129.497 98.3473 129.855 98.7852 130.97 98.7852H132.005L130.97 104.199H128.86C125.158 104.199 122.411 102.806 123.486 97.153L127.825 74.9402H134.035L129.775 96.7549ZM143.582 104L148.996 76.1344H159.067C164.481 76.1344 167.785 78.7219 166.79 83.7377L166.591 84.7329C166.113 87.1214 164.72 88.6739 162.889 89.6293C165.357 91.0226 166.471 93.5703 165.954 96.1976L165.755 97.1928C164.879 101.651 160.261 104 154.808 104H143.582ZM158.032 81.5483H154.171L153.056 87.2408H156.28C158.191 87.2408 160.062 86.5243 160.381 84.6533L160.54 84.0164C160.898 82.5037 159.704 81.5483 158.032 81.5483ZM156.479 92.2566H152.061L150.827 98.5861H154.808C157.475 98.5861 159.027 97.5113 159.425 95.919L159.584 95.282C160.062 93.4509 158.908 92.2566 156.479 92.2566ZM173.683 104H167.473L171.374 83.8572H177.584L176.947 87.201C178.778 84.6931 180.848 83.4591 183.316 83.4591H184.232L183.038 89.6691H181.684C178.659 89.6691 176.23 90.943 175.554 94.3665L173.683 104ZM194.622 104L195.14 101.253C193.786 103.164 191.716 104.398 189.129 104.398C184.272 104.398 182.322 99.9794 183.197 95.2422L183.675 92.6547C184.591 87.6389 187.616 83.4591 192.751 83.4591C195.339 83.4591 197.17 84.8922 197.926 86.9622L198.524 83.8572H204.734L200.832 104H194.622ZM193.667 88.873C191.438 88.873 190.443 90.8634 190.005 93.013L189.646 94.8442C189.208 96.9938 190.124 98.9842 192.313 98.9842C194.543 98.9842 195.936 97.153 196.334 95.1228L196.772 92.8936C197.21 90.6643 195.896 88.873 193.667 88.873ZM211.006 104H204.796L208.697 83.8572H214.907L214.27 87.1612C216.061 84.5339 218.291 83.4591 220.799 83.4591C224.74 83.4591 226.65 86.8428 225.894 90.7041L223.307 104H217.096L219.326 92.5353C219.803 90.0672 219.246 88.873 217.256 88.873C215.464 88.873 213.713 90.107 213.076 93.3315L211.006 104ZM239.176 104L239.694 101.253C238.34 103.164 236.31 104.398 233.683 104.398C228.826 104.398 226.876 99.9794 227.751 95.2422L228.229 92.6547C229.145 87.6389 232.17 83.4591 237.305 83.4591C239.933 83.4591 241.724 84.8922 242.48 87.002L244.829 74.9402H251.039L245.386 104H239.176ZM238.181 88.873C235.992 88.873 234.957 90.8634 234.558 93.013L234.2 94.8442C233.762 96.9938 234.678 98.9842 236.867 98.9842C239.136 98.9842 240.49 97.1928 240.928 94.9636L241.326 92.8936C241.764 90.6643 240.45 88.873 238.181 88.873ZM259.899 88.1564C258.505 88.1564 257.709 88.6739 257.55 89.6691C257.391 90.5847 257.908 91.0226 259.103 91.3012L261.611 91.8586C266.427 92.9334 267.741 94.8442 267.104 98.3075C266.348 102.567 262.367 104.398 257.829 104.398C252.295 104.398 249.031 102.248 249.27 97.7501H255.162C255.281 99.024 256.157 99.7405 257.988 99.7405C259.779 99.7405 260.695 99.223 260.854 98.188C261.013 97.3521 260.456 96.954 259.262 96.6753L256.276 95.9986C252.415 95.1228 250.783 92.814 251.34 89.5497C252.057 85.1708 255.838 83.4591 260.337 83.4591C265.352 83.4591 268.338 85.8077 268.099 90.1468H262.088C262.128 88.8332 261.411 88.1564 259.899 88.1564ZM8.49119 124.951C6.30175 124.951 4.74924 123.558 5.18712 121.408C5.5454 119.418 7.29695 118.343 9.32716 118.343C11.437 118.343 12.9895 119.697 12.6312 121.806C12.2331 123.797 10.5214 124.951 8.49119 124.951ZM0.68882 148L4.59 127.857H10.8001L6.89887 148H0.68882ZM17.0857 148H10.8756L14.7768 127.857H20.9869L20.3499 131.161C22.1413 128.534 24.3705 127.459 26.8784 127.459C30.8194 127.459 32.7302 130.843 31.9739 134.704L29.3863 148H23.1763L25.4055 136.535C25.8832 134.067 25.3259 132.873 23.3355 132.873C21.5442 132.873 19.7926 134.107 19.1557 137.331L17.0857 148ZM65.4145 148.597C49.133 148.597 42.4054 144.099 42.4054 134.425C42.4054 124.752 49.133 120.254 65.4145 120.254C81.6959 120.254 88.4235 124.752 88.4235 134.425C88.4235 144.099 81.6959 148.597 65.4145 148.597ZM65.4145 139.441C75.0878 139.441 77.4763 138.406 77.4763 134.425C77.4763 130.445 75.0878 129.41 65.4145 129.41C55.7411 129.41 53.1536 130.445 53.1536 134.425C53.1536 138.406 55.7411 139.441 65.4145 139.441ZM89.2311 148V127.419H97.9889L98.4666 129.529C102.567 128.016 107.304 126.822 112.081 126.822C119.525 126.822 123.386 129.649 123.386 136.376V148H113.434V138.247C113.434 135.898 111.563 135.102 108.817 135.102C106.07 135.102 102.845 135.62 99.1831 136.456V148H89.2311ZM141.334 140.795C147.624 140.795 151.565 140.357 154.311 139.999L156.302 147.045C152.122 148.08 145.673 148.597 140.379 148.597C128.356 148.597 123.58 145.134 123.58 137.69C123.58 130.246 129.153 126.822 140.06 126.822C150.251 126.822 156.541 129.489 156.541 135.779C156.541 136.933 156.421 139.242 156.342 139.839H133.85C134.726 140.636 136.756 140.795 141.334 140.795ZM139.702 133.39C135.801 133.39 134.208 133.749 133.532 134.863H146.549C145.952 133.789 144.28 133.39 139.702 133.39ZM166.714 148V120.851H194.818C201.546 120.851 206.92 123.12 206.92 131.241C206.92 139.879 201.546 142.825 194.818 142.825H177.462V148H166.714ZM193.465 130.007H177.462V133.669H193.465C194.858 133.669 195.774 133.231 195.774 131.838C195.774 130.285 194.858 130.007 193.465 130.007ZM217.486 118.144V148H207.534V118.144H217.486ZM252.441 128.255L252.401 128.295H252.441V148H243.643L243.046 145.771C239.264 147.244 234.965 148.398 230.466 148.398C223.5 148.398 218.285 145.811 218.285 137.968C218.285 129.569 224.655 127.021 233.97 127.021C241.653 127.021 247.664 127.698 252.441 128.255ZM228.237 137.61C228.237 139.561 229.232 140.237 232.457 140.237C235.204 140.237 238.627 139.8 242.449 138.884V135.341C239.304 135.142 235.841 134.983 232.974 134.983C229.551 134.983 228.237 135.779 228.237 137.61ZM252.847 137.65C252.847 130.285 257.982 126.822 270.044 126.822C275.219 126.822 280.712 127.539 284.773 128.534L282.782 136.416C279.677 135.819 275.219 135.182 268.451 135.182C264.192 135.182 262.799 135.66 262.799 137.65C262.799 139.68 264.192 140.118 268.451 140.118C275.219 140.118 279.677 139.481 282.782 138.884L284.773 146.766C280.712 147.761 275.219 148.478 270.044 148.478C257.982 148.478 252.847 145.014 252.847 137.65ZM301.508 140.795C307.798 140.795 311.739 140.357 314.486 139.999L316.476 147.045C312.296 148.08 305.847 148.597 300.553 148.597C288.531 148.597 283.754 145.134 283.754 137.69C283.754 130.246 289.327 126.822 300.234 126.822C310.425 126.822 316.715 129.489 316.715 135.779C316.715 136.933 316.595 139.242 316.516 139.839H294.024C294.9 140.636 296.93 140.795 301.508 140.795ZM299.876 133.39C295.975 133.39 294.383 133.749 293.706 134.863H306.723C306.126 133.789 304.454 133.39 299.876 133.39Z" fill="black"/>
</svg>
